<svg width="116" height="116" viewBox="0 0 116 116" fill="none" xmlns="http://www.w3.org/2000/svg">
<g filter="url(#filter0_d_16_73)">
<path fill-rule="evenodd" clip-rule="evenodd" d="M28 13C23.5817 13 20 16.5817 20 21V95C20 99.4183 23.5817 103 28 103H87C91.4183 103 95 99.4183 95 95V40L68 13H28Z" fill="url(#paint0_linear_16_73)"/>
</g>
<g filter="url(#filter1_d_16_73)">
<path d="M95 40L68 13V37C68 38.6569 69.3431 40 71 40H95Z" fill="white"/>
</g>
<g filter="url(#filter2_d_16_73)">
<path d="M56.2812 46.4688C57.375 46.0781 58.5469 46.0781 59.6406 46.4688L74.6406 51.8594C76.5938 52.5625 78 54.4375 78 56.5469V75.5312C78 77.6406 76.5938 79.5156 74.6406 80.2188L59.6406 85.6094C58.5469 86 57.375 86 56.2812 85.6094L41.2812 80.2188C39.3281 79.5156 38 77.6406 38 75.5312V56.5469C38 54.4375 39.3281 52.5625 41.2812 51.8594L56.2812 46.4688ZM58 51.1562L44.4062 56L58 60.8438L71.5156 56L58 51.1562ZM60.5 79.9844L73 75.5312V60.8438L60.5 65.2969V79.9844Z" fill="#FFD12E"/>
</g>
<defs>
<filter id="filter0_d_16_73" x="16" y="13" width="83" height="98" filterUnits="userSpaceOnUse" color-interpolation-filters="sRGB">
<feFlood flood-opacity="0" result="BackgroundImageFix"/>
<feColorMatrix in="SourceAlpha" type="matrix" values="0 0 0 0 0 0 0 0 0 0 0 0 0 0 0 0 0 0 127 0" result="hardAlpha"/>
<feOffset dy="4"/>
<feGaussianBlur stdDeviation="2"/>
<feComposite in2="hardAlpha" operator="out"/>
<feColorMatrix type="matrix" values="0 0 0 0 0 0 0 0 0 0 0 0 0 0 0 0 0 0 0.25 0"/>
<feBlend mode="normal" in2="BackgroundImageFix" result="effect1_dropShadow_16_73"/>
<feBlend mode="normal" in="SourceGraphic" in2="effect1_dropShadow_16_73" result="shape"/>
</filter>
<filter id="filter1_d_16_73" x="62" y="11" width="35" height="35" filterUnits="userSpaceOnUse" color-interpolation-filters="sRGB">
<feFlood flood-opacity="0" result="BackgroundImageFix"/>
<feColorMatrix in="SourceAlpha" type="matrix" values="0 0 0 0 0 0 0 0 0 0 0 0 0 0 0 0 0 0 127 0" result="hardAlpha"/>
<feOffset dx="-2" dy="2"/>
<feGaussianBlur stdDeviation="2"/>
<feComposite in2="hardAlpha" operator="out"/>
<feColorMatrix type="matrix" values="0 0 0 0 0 0 0 0 0 0 0 0 0 0 0 0 0 0 0.25 0"/>
<feBlend mode="normal" in2="BackgroundImageFix" result="effect1_dropShadow_16_73"/>
<feBlend mode="normal" in="SourceGraphic" in2="effect1_dropShadow_16_73" result="shape"/>
</filter>
<filter id="filter2_d_16_73" x="34" y="46.1758" width="48" height="47.7266" filterUnits="userSpaceOnUse" color-interpolation-filters="sRGB">
<feFlood flood-opacity="0" result="BackgroundImageFix"/>
<feColorMatrix in="SourceAlpha" type="matrix" values="0 0 0 0 0 0 0 0 0 0 0 0 0 0 0 0 0 0 127 0" result="hardAlpha"/>
<feOffset dy="4"/>
<feGaussianBlur stdDeviation="2"/>
<feComposite in2="hardAlpha" operator="out"/>
<feColorMatrix type="matrix" values="0 0 0 0 0 0 0 0 0 0 0 0 0 0 0 0 0 0 0.25 0"/>
<feBlend mode="normal" in2="BackgroundImageFix" result="effect1_dropShadow_16_73"/>
<feBlend mode="normal" in="SourceGraphic" in2="effect1_dropShadow_16_73" result="shape"/>
</filter>
<linearGradient id="paint0_linear_16_73" x1="20" y1="103" x2="92" y2="13" gradientUnits="userSpaceOnUse">
<stop stop-color="#EDEDED"/>
<stop offset="1" stop-color="#F9F9F9"/>
</linearGradient>
</defs>
</svg>
