<svg width="116" height="116" viewBox="0 0 116 116" fill="none" xmlns="http://www.w3.org/2000/svg">
<g filter="url(#filter0_d_16_31)">
<rect x="4" y="8" width="100" height="100" rx="8" fill="url(#paint0_radial_16_31)"/>
<rect x="4" y="8" width="100" height="100" rx="8" fill="url(#paint1_linear_16_31)" fill-opacity="0.2"/>
<mask id="mask0_16_31" style="mask-type:alpha" maskUnits="userSpaceOnUse" x="4" y="8" width="100" height="100">
<rect x="4" y="8" width="100" height="100" rx="8" fill="url(#paint2_radial_16_31)"/>
<rect x="4" y="8" width="100" height="100" rx="8" fill="url(#paint3_linear_16_31)" fill-opacity="0.2"/>
</mask>
<g mask="url(#mask0_16_31)">
<g filter="url(#filter1_d_16_31)">
<path d="M18 92C16.8379 92 16.77 93.4732 17.5999 94.2867C19.081 95.7387 20 97.762 20 100C20 104.418 16.4183 108 12 108H104C108.418 108 112 104.418 112 100C112 95.5817 108.418 92 104 92H18Z" fill="url(#paint4_linear_16_31)"/>
</g>
<g filter="url(#filter2_d_16_31)">
<path d="M18 24C16.8379 24 16.77 22.5268 17.5999 21.7133C19.081 20.2613 20 18.238 20 16C20 11.5817 16.4183 8 12 8H104C108.418 8 112 11.5817 112 16C112 20.4183 108.418 24 104 24H18Z" fill="url(#paint5_linear_16_31)"/>
</g>
</g>
<path d="M18 92C16.8379 92 16.77 93.4732 17.5999 94.2867C19.081 95.7387 20 97.762 20 100C20 104.418 16.4183 108 12 108H104C108.418 108 112 104.418 112 100C112 95.5817 108.418 92 104 92H18Z" fill="url(#paint6_linear_16_31)"/>
<path d="M18 24C16.8379 24 16.77 22.5268 17.5999 21.7133C19.081 20.2613 20 18.238 20 16C20 11.5817 16.4183 8 12 8H104C108.418 8 112 11.5817 112 16C112 20.4183 108.418 24 104 24H18Z" fill="url(#paint7_linear_16_31)"/>
</g>
<g filter="url(#filter3_d_16_31)">
<path d="M106.672 78.0469C106.984 78.75 106.75 79.4531 106.203 80L102.844 83.0469C102.922 83.6719 103 84.375 103 85C103 85.7031 102.922 86.4062 102.844 87.0312L106.203 90.0781C106.75 90.625 106.984 91.3281 106.672 92.0312C106.359 92.9688 105.969 93.8281 105.5 94.6875L105.109 95.3125C104.562 96.1719 104.016 97.0312 103.391 97.8125C102.922 98.3594 102.141 98.5156 101.438 98.2812L97.1406 96.9531C96.0469 97.7344 94.875 98.3594 93.7031 98.9062L92.6875 103.359C92.5312 104.062 91.9844 104.609 91.2812 104.766C90.1875 104.922 89.0938 105 87.9219 105C86.8281 105 85.7344 104.922 84.6406 104.766C83.9375 104.609 83.3906 104.062 83.2344 103.359L82.2188 98.9062C81.0469 98.3594 79.875 97.7344 78.7812 96.9531L74.4844 98.2812C73.7812 98.5156 73 98.3594 72.5312 97.8125C71.9062 97.0312 71.3594 96.1719 70.8125 95.3125L70.4219 94.6875C69.9531 93.8281 69.5625 92.9688 69.25 92.0312C68.9375 91.3281 69.1719 90.625 69.7188 90.0781L73.0781 87.0312C73 86.4062 73 85.7031 73 85C73 84.375 73 83.6719 73.0781 83.0469L69.7188 80C69.1719 79.4531 68.9375 78.75 69.25 78.0469C69.5625 77.1094 69.9531 76.25 70.4219 75.3906L70.8125 74.7656C71.3594 73.9062 71.9062 73.0469 72.5312 72.2656C73 71.7188 73.7812 71.5625 74.4844 71.7969L78.7812 73.125C79.875 72.3438 81.0469 71.6406 82.2188 71.1719L83.2344 66.7188C83.3906 66.0156 83.9375 65.4688 84.6406 65.3125C85.7344 65.1562 86.8281 65 88 65C89.0938 65 90.1875 65.1562 91.2812 65.3125C91.9844 65.4688 92.5312 66.0156 92.6875 66.7188L93.7031 71.1719C94.875 71.6406 96.0469 72.3438 97.1406 73.125L101.438 71.7969C102.141 71.5625 102.922 71.7188 103.391 72.2656C104.016 73.0469 104.562 73.9062 105.109 74.7656L105.5 75.3906C105.969 76.25 106.359 77.1094 106.672 78.0469ZM88 91.25C91.4375 91.25 94.25 88.5156 94.25 85C94.25 81.5625 91.4375 78.75 88 78.75C84.4844 78.75 81.75 81.5625 81.75 85C81.75 88.5156 84.4844 91.25 88 91.25Z" fill="black"/>
</g>
<defs>
<filter id="filter0_d_16_31" x="0" y="8" width="116" height="108" filterUnits="userSpaceOnUse" color-interpolation-filters="sRGB">
<feFlood flood-opacity="0" result="BackgroundImageFix"/>
<feColorMatrix in="SourceAlpha" type="matrix" values="0 0 0 0 0 0 0 0 0 0 0 0 0 0 0 0 0 0 127 0" result="hardAlpha"/>
<feOffset dy="4"/>
<feGaussianBlur stdDeviation="2"/>
<feComposite in2="hardAlpha" operator="out"/>
<feColorMatrix type="matrix" values="0 0 0 0 0 0 0 0 0 0 0 0 0 0 0 0 0 0 0.25 0"/>
<feBlend mode="normal" in2="BackgroundImageFix" result="effect1_dropShadow_16_31"/>
<feBlend mode="normal" in="SourceGraphic" in2="effect1_dropShadow_16_31" result="shape"/>
</filter>
<filter id="filter1_d_16_31" x="8" y="86" width="108" height="24" filterUnits="userSpaceOnUse" color-interpolation-filters="sRGB">
<feFlood flood-opacity="0" result="BackgroundImageFix"/>
<feColorMatrix in="SourceAlpha" type="matrix" values="0 0 0 0 0 0 0 0 0 0 0 0 0 0 0 0 0 0 127 0" result="hardAlpha"/>
<feOffset dy="-2"/>
<feGaussianBlur stdDeviation="2"/>
<feComposite in2="hardAlpha" operator="out"/>
<feColorMatrix type="matrix" values="0 0 0 0 0 0 0 0 0 0 0 0 0 0 0 0 0 0 0.25 0"/>
<feBlend mode="normal" in2="BackgroundImageFix" result="effect1_dropShadow_16_31"/>
<feBlend mode="normal" in="SourceGraphic" in2="effect1_dropShadow_16_31" result="shape"/>
</filter>
<filter id="filter2_d_16_31" x="8" y="6" width="108" height="24" filterUnits="userSpaceOnUse" color-interpolation-filters="sRGB">
<feFlood flood-opacity="0" result="BackgroundImageFix"/>
<feColorMatrix in="SourceAlpha" type="matrix" values="0 0 0 0 0 0 0 0 0 0 0 0 0 0 0 0 0 0 127 0" result="hardAlpha"/>
<feOffset dy="2"/>
<feGaussianBlur stdDeviation="2"/>
<feComposite in2="hardAlpha" operator="out"/>
<feColorMatrix type="matrix" values="0 0 0 0 0 0 0 0 0 0 0 0 0 0 0 0 0 0 0.25 0"/>
<feBlend mode="normal" in2="BackgroundImageFix" result="effect1_dropShadow_16_31"/>
<feBlend mode="normal" in="SourceGraphic" in2="effect1_dropShadow_16_31" result="shape"/>
</filter>
<filter id="filter3_d_16_31" x="65.11" y="65" width="45.7018" height="48" filterUnits="userSpaceOnUse" color-interpolation-filters="sRGB">
<feFlood flood-opacity="0" result="BackgroundImageFix"/>
<feColorMatrix in="SourceAlpha" type="matrix" values="0 0 0 0 0 0 0 0 0 0 0 0 0 0 0 0 0 0 127 0" result="hardAlpha"/>
<feOffset dy="4"/>
<feGaussianBlur stdDeviation="2"/>
<feComposite in2="hardAlpha" operator="out"/>
<feColorMatrix type="matrix" values="0 0 0 0 0 0 0 0 0 0 0 0 0 0 0 0 0 0 0.25 0"/>
<feBlend mode="normal" in2="BackgroundImageFix" result="effect1_dropShadow_16_31"/>
<feBlend mode="normal" in="SourceGraphic" in2="effect1_dropShadow_16_31" result="shape"/>
</filter>
<radialGradient id="paint0_radial_16_31" cx="0" cy="0" r="1" gradientUnits="userSpaceOnUse" gradientTransform="translate(54 58) rotate(90) scale(50)">
<stop stop-color="#EAC286"/>
<stop offset="1" stop-color="#D3AD74"/>
</radialGradient>
<linearGradient id="paint1_linear_16_31" x1="104" y1="8" x2="54" y2="58" gradientUnits="userSpaceOnUse">
<stop stop-color="white"/>
<stop offset="1" stop-color="white" stop-opacity="0"/>
</linearGradient>
<radialGradient id="paint2_radial_16_31" cx="0" cy="0" r="1" gradientUnits="userSpaceOnUse" gradientTransform="translate(54 58) rotate(90) scale(50)">
<stop stop-color="#EAC286"/>
<stop offset="1" stop-color="#D3AD74"/>
</radialGradient>
<linearGradient id="paint3_linear_16_31" x1="104" y1="8" x2="54" y2="58" gradientUnits="userSpaceOnUse">
<stop stop-color="white"/>
<stop offset="1" stop-color="white" stop-opacity="0"/>
</linearGradient>
<linearGradient id="paint4_linear_16_31" x1="50.5" y1="92" x2="112" y2="108" gradientUnits="userSpaceOnUse">
<stop stop-color="#BA9051"/>
<stop offset="1" stop-color="#C69B5B"/>
</linearGradient>
<linearGradient id="paint5_linear_16_31" x1="50.5" y1="24" x2="112" y2="7.99999" gradientUnits="userSpaceOnUse">
<stop stop-color="#BA9051"/>
<stop offset="1" stop-color="#C69B5B"/>
</linearGradient>
<linearGradient id="paint6_linear_16_31" x1="50.5" y1="92" x2="112" y2="108" gradientUnits="userSpaceOnUse">
<stop stop-color="#BA9051"/>
<stop offset="1" stop-color="#C69B5B"/>
</linearGradient>
<linearGradient id="paint7_linear_16_31" x1="50.5" y1="24" x2="112" y2="7.99999" gradientUnits="userSpaceOnUse">
<stop stop-color="#BA9051"/>
<stop offset="1" stop-color="#C69B5B"/>
</linearGradient>
</defs>
</svg>
