<svg width="116" height="116" viewBox="0 0 116 116" fill="none" xmlns="http://www.w3.org/2000/svg">
<path d="M8 27V36H50.2948C52.3411 36 54 34.3411 54 32.2948C54 30.8658 53.1783 29.5641 51.8881 28.9496L32.6323 19.7775C31.5576 19.2656 30.3823 19 29.192 19H16C11.5817 19 8 22.5817 8 27Z" fill="url(#paint0_linear_16_41)"/>
<mask id="mask0_16_41" style="mask-type:alpha" maskUnits="userSpaceOnUse" x="8" y="19" width="46" height="17">
<path d="M8 27V36H50.2948C52.3411 36 54 34.3411 54 32.2948C54 30.8658 53.1783 29.5641 51.8881 28.9496L32.6323 19.7775C31.5576 19.2656 30.3823 19 29.192 19H16C11.5817 19 8 22.5817 8 27Z" fill="url(#paint1_linear_16_41)"/>
</mask>
<g mask="url(#mask0_16_41)">
<g filter="url(#filter0_d_16_41)">
<rect x="8" y="26" width="100" height="70" rx="8" fill="#67D1FF"/>
<rect x="8" y="26" width="100" height="70" rx="8" fill="url(#paint2_radial_16_41)" fill-opacity="0.2"/>
</g>
</g>
<g filter="url(#filter1_d_16_41)">
<rect x="8" y="26" width="100" height="70" rx="8" fill="#67D1FF"/>
<rect x="8" y="26" width="100" height="70" rx="8" fill="url(#paint3_radial_16_41)" fill-opacity="0.2"/>
</g>
<g filter="url(#filter2_i_16_41)">
<rect x="8" y="75" width="100" height="5" fill="black" fill-opacity="0.04"/>
</g>
<g filter="url(#filter3_i_16_41)">
<rect x="8" y="84" width="100" height="5" fill="black" fill-opacity="0.04"/>
</g>
<defs>
<filter id="filter0_d_16_41" x="4" y="18" width="108" height="78" filterUnits="userSpaceOnUse" color-interpolation-filters="sRGB">
<feFlood flood-opacity="0" result="BackgroundImageFix"/>
<feColorMatrix in="SourceAlpha" type="matrix" values="0 0 0 0 0 0 0 0 0 0 0 0 0 0 0 0 0 0 127 0" result="hardAlpha"/>
<feOffset dy="-4"/>
<feGaussianBlur stdDeviation="2"/>
<feComposite in2="hardAlpha" operator="out"/>
<feColorMatrix type="matrix" values="0 0 0 0 0 0 0 0 0 0 0 0 0 0 0 0 0 0 0.25 0"/>
<feBlend mode="normal" in2="BackgroundImageFix" result="effect1_dropShadow_16_41"/>
<feBlend mode="normal" in="SourceGraphic" in2="effect1_dropShadow_16_41" result="shape"/>
</filter>
<filter id="filter1_d_16_41" x="4" y="26" width="108" height="78" filterUnits="userSpaceOnUse" color-interpolation-filters="sRGB">
<feFlood flood-opacity="0" result="BackgroundImageFix"/>
<feColorMatrix in="SourceAlpha" type="matrix" values="0 0 0 0 0 0 0 0 0 0 0 0 0 0 0 0 0 0 127 0" result="hardAlpha"/>
<feOffset dy="4"/>
<feGaussianBlur stdDeviation="2"/>
<feComposite in2="hardAlpha" operator="out"/>
<feColorMatrix type="matrix" values="0 0 0 0 0 0 0 0 0 0 0 0 0 0 0 0 0 0 0.25 0"/>
<feBlend mode="normal" in2="BackgroundImageFix" result="effect1_dropShadow_16_41"/>
<feBlend mode="normal" in="SourceGraphic" in2="effect1_dropShadow_16_41" result="shape"/>
</filter>
<filter id="filter2_i_16_41" x="8" y="75" width="100" height="6" filterUnits="userSpaceOnUse" color-interpolation-filters="sRGB">
<feFlood flood-opacity="0" result="BackgroundImageFix"/>
<feBlend mode="normal" in="SourceGraphic" in2="BackgroundImageFix" result="shape"/>
<feColorMatrix in="SourceAlpha" type="matrix" values="0 0 0 0 0 0 0 0 0 0 0 0 0 0 0 0 0 0 127 0" result="hardAlpha"/>
<feOffset dy="1"/>
<feGaussianBlur stdDeviation="2"/>
<feComposite in2="hardAlpha" operator="arithmetic" k2="-1" k3="1"/>
<feColorMatrix type="matrix" values="0 0 0 0 0 0 0 0 0 0 0 0 0 0 0 0 0 0 0.1 0"/>
<feBlend mode="normal" in2="shape" result="effect1_innerShadow_16_41"/>
</filter>
<filter id="filter3_i_16_41" x="8" y="84" width="100" height="6" filterUnits="userSpaceOnUse" color-interpolation-filters="sRGB">
<feFlood flood-opacity="0" result="BackgroundImageFix"/>
<feBlend mode="normal" in="SourceGraphic" in2="BackgroundImageFix" result="shape"/>
<feColorMatrix in="SourceAlpha" type="matrix" values="0 0 0 0 0 0 0 0 0 0 0 0 0 0 0 0 0 0 127 0" result="hardAlpha"/>
<feOffset dy="1"/>
<feGaussianBlur stdDeviation="2"/>
<feComposite in2="hardAlpha" operator="arithmetic" k2="-1" k3="1"/>
<feColorMatrix type="matrix" values="0 0 0 0 0 0 0 0 0 0 0 0 0 0 0 0 0 0 0.1 0"/>
<feBlend mode="normal" in2="shape" result="effect1_innerShadow_16_41"/>
</filter>
<linearGradient id="paint0_linear_16_41" x1="8" y1="36" x2="54" y2="19" gradientUnits="userSpaceOnUse">
<stop stop-color="#4F8DA9"/>
<stop offset="1" stop-color="#5EB1D7"/>
</linearGradient>
<linearGradient id="paint1_linear_16_41" x1="8" y1="36" x2="54" y2="19" gradientUnits="userSpaceOnUse">
<stop stop-color="#4F8DA9"/>
<stop offset="1" stop-color="#5EB1D7"/>
</linearGradient>
<radialGradient id="paint2_radial_16_41" cx="0" cy="0" r="1" gradientUnits="userSpaceOnUse" gradientTransform="translate(58 61) rotate(90) scale(43.5 62.1429)">
<stop stop-opacity="0"/>
<stop offset="1" stop-opacity="0.5"/>
</radialGradient>
<radialGradient id="paint3_radial_16_41" cx="0" cy="0" r="1" gradientUnits="userSpaceOnUse" gradientTransform="translate(58 61) rotate(90) scale(43.5 62.1429)">
<stop stop-opacity="0"/>
<stop offset="1" stop-opacity="0.5"/>
</radialGradient>
</defs>
</svg>
