<svg width="116" height="116" viewBox="0 0 116 116" fill="none" xmlns="http://www.w3.org/2000/svg">
<g filter="url(#filter0_d_18_102)">
<path fill-rule="evenodd" clip-rule="evenodd" d="M28 13C23.5817 13 20 16.5817 20 21V95C20 99.4183 23.5817 103 28 103H87C91.4183 103 95 99.4183 95 95V40L68 13H28Z" fill="url(#paint0_linear_18_102)"/>
</g>
<g filter="url(#filter1_d_18_102)">
<path d="M95 40L68 13V37C68 38.6569 69.3431 40 71 40H95Z" fill="white"/>
</g>
<g filter="url(#filter2_d_18_102)">
<path d="M40 51L43.1875 88.125L57.9062 93L72.7188 88.125L76 51H40ZM68.875 63H51.625L52 67.6875H68.5L67.1875 81.5625L58 84.0938H57.9062L48.625 81.5625L48.0625 74.4375H52.5625L52.9375 78L57.9062 79.4062L62.9688 78L63.5312 72.1875H47.875L46.6562 58.5938H69.25L68.875 63Z" fill="#FF532E"/>
</g>
<defs>
<filter id="filter0_d_18_102" x="16" y="13" width="83" height="98" filterUnits="userSpaceOnUse" color-interpolation-filters="sRGB">
<feFlood flood-opacity="0" result="BackgroundImageFix"/>
<feColorMatrix in="SourceAlpha" type="matrix" values="0 0 0 0 0 0 0 0 0 0 0 0 0 0 0 0 0 0 127 0" result="hardAlpha"/>
<feOffset dy="4"/>
<feGaussianBlur stdDeviation="2"/>
<feComposite in2="hardAlpha" operator="out"/>
<feColorMatrix type="matrix" values="0 0 0 0 0 0 0 0 0 0 0 0 0 0 0 0 0 0 0.25 0"/>
<feBlend mode="normal" in2="BackgroundImageFix" result="effect1_dropShadow_18_102"/>
<feBlend mode="normal" in="SourceGraphic" in2="effect1_dropShadow_18_102" result="shape"/>
</filter>
<filter id="filter1_d_18_102" x="62" y="11" width="35" height="35" filterUnits="userSpaceOnUse" color-interpolation-filters="sRGB">
<feFlood flood-opacity="0" result="BackgroundImageFix"/>
<feColorMatrix in="SourceAlpha" type="matrix" values="0 0 0 0 0 0 0 0 0 0 0 0 0 0 0 0 0 0 127 0" result="hardAlpha"/>
<feOffset dx="-2" dy="2"/>
<feGaussianBlur stdDeviation="2"/>
<feComposite in2="hardAlpha" operator="out"/>
<feColorMatrix type="matrix" values="0 0 0 0 0 0 0 0 0 0 0 0 0 0 0 0 0 0 0.25 0"/>
<feBlend mode="normal" in2="BackgroundImageFix" result="effect1_dropShadow_18_102"/>
<feBlend mode="normal" in="SourceGraphic" in2="effect1_dropShadow_18_102" result="shape"/>
</filter>
<filter id="filter2_d_18_102" x="36" y="51" width="44" height="50" filterUnits="userSpaceOnUse" color-interpolation-filters="sRGB">
<feFlood flood-opacity="0" result="BackgroundImageFix"/>
<feColorMatrix in="SourceAlpha" type="matrix" values="0 0 0 0 0 0 0 0 0 0 0 0 0 0 0 0 0 0 127 0" result="hardAlpha"/>
<feOffset dy="4"/>
<feGaussianBlur stdDeviation="2"/>
<feComposite in2="hardAlpha" operator="out"/>
<feColorMatrix type="matrix" values="0 0 0 0 0 0 0 0 0 0 0 0 0 0 0 0 0 0 0.25 0"/>
<feBlend mode="normal" in2="BackgroundImageFix" result="effect1_dropShadow_18_102"/>
<feBlend mode="normal" in="SourceGraphic" in2="effect1_dropShadow_18_102" result="shape"/>
</filter>
<linearGradient id="paint0_linear_18_102" x1="20" y1="103" x2="92" y2="13" gradientUnits="userSpaceOnUse">
<stop stop-color="#EDEDED"/>
<stop offset="1" stop-color="#F9F9F9"/>
</linearGradient>
</defs>
</svg>
