<svg width="116" height="116" viewBox="0 0 116 116" fill="none" xmlns="http://www.w3.org/2000/svg">
<g filter="url(#filter0_d_18_90)">
<path d="M93.8125 16H21.8125C15.25 16 9.8125 21.4375 9.8125 28V88C9.8125 94.75 15.25 100 21.8125 100H93.8125C100.375 100 105.812 94.75 105.812 88V28C105.812 21.4375 100.562 16 93.8125 16ZM30.8125 28C35.6875 28 39.8125 32.125 39.8125 37C39.8125 42.0625 35.875 46 30.8125 46C25.5625 46 21.8125 42.0625 21.8125 37C21.8125 32.125 25.9375 28 30.8125 28ZM93.625 86.5C93.0625 87.4375 91.9375 88 91 88H25.375C24.0625 88 23.125 87.4375 22.5625 86.5C22.1875 85.375 22.1875 84.25 22.9375 83.3125L36.0625 65.3125C36.625 64.5625 37.375 64 38.5 64C39.4375 64 40.1875 64.5625 40.75 65.3125L46.9375 73.75L64.375 47.5C64.9375 46.5625 65.875 46 67 46C67.9375 46 68.875 46.5625 69.4375 47.5L93.4375 83.5C94 84.25 94 85.5625 93.625 86.5Z" fill="#469D59"/>
</g>
<defs>
<filter id="filter0_d_18_90" x="5.8125" y="16" width="104" height="92" filterUnits="userSpaceOnUse" color-interpolation-filters="sRGB">
<feFlood flood-opacity="0" result="BackgroundImageFix"/>
<feColorMatrix in="SourceAlpha" type="matrix" values="0 0 0 0 0 0 0 0 0 0 0 0 0 0 0 0 0 0 127 0" result="hardAlpha"/>
<feOffset dy="4"/>
<feGaussianBlur stdDeviation="2"/>
<feComposite in2="hardAlpha" operator="out"/>
<feColorMatrix type="matrix" values="0 0 0 0 0 0 0 0 0 0 0 0 0 0 0 0 0 0 0.25 0"/>
<feBlend mode="normal" in2="BackgroundImageFix" result="effect1_dropShadow_18_90"/>
<feBlend mode="normal" in="SourceGraphic" in2="effect1_dropShadow_18_90" result="shape"/>
</filter>
</defs>
</svg>
