<svg width="116" height="116" viewBox="0 0 116 116" fill="none" xmlns="http://www.w3.org/2000/svg">
<g filter="url(#filter0_d_16_46)">
<path fill-rule="evenodd" clip-rule="evenodd" d="M28 13C23.5817 13 20 16.5817 20 21V95C20 99.4183 23.5817 103 28 103H87C91.4183 103 95 99.4183 95 95V40L68 13H28Z" fill="url(#paint0_linear_16_46)"/>
</g>
<g filter="url(#filter1_d_16_46)">
<path d="M95 40L68 13V37C68 38.6569 69.3431 40 71 40H95Z" fill="white"/>
</g>
<g filter="url(#filter2_d_16_46)">
<path d="M54.9631 55.68V73.96C54.9631 77.3467 54.0698 79.92 52.2831 81.68C50.5231 83.4133 48.0431 84.28 44.8431 84.28C41.4031 84.28 38.6698 83.3333 36.6431 81.44C34.6165 79.5467 33.6031 76.7867 33.6031 73.16H42.3631C42.3631 74.3067 42.5498 75.12 42.9231 75.6C43.2965 76.0533 43.8031 76.28 44.4431 76.28C44.9765 76.28 45.3898 76.1067 45.6831 75.76C45.9765 75.4133 46.1231 74.8133 46.1231 73.96V55.68H54.9631Z" fill="#FFD12E"/>
<path d="M69.8769 84.28C66.4902 84.28 63.6902 83.4933 61.4769 81.92C59.2902 80.32 58.1035 77.9867 57.9169 74.92H67.3569C67.4902 76.5467 68.2102 77.36 69.5169 77.36C69.9969 77.36 70.3969 77.2533 70.7169 77.04C71.0635 76.8 71.2369 76.44 71.2369 75.96C71.2369 75.2933 70.8769 74.76 70.1569 74.36C69.4369 73.9333 68.3169 73.4533 66.7969 72.92C64.9835 72.28 63.4769 71.6533 62.2769 71.04C61.1035 70.4267 60.0902 69.5333 59.2369 68.36C58.3835 67.1867 57.9702 65.68 57.9969 63.84C57.9969 62 58.4635 60.44 59.3969 59.16C60.3569 57.8533 61.6502 56.8667 63.2769 56.2C64.9302 55.5333 66.7835 55.2 68.8369 55.2C72.3035 55.2 75.0502 56 77.0769 57.6C79.1302 59.2 80.2102 61.4533 80.3169 64.36H70.7569C70.7302 63.56 70.5302 62.9867 70.1569 62.64C69.7835 62.2933 69.3302 62.12 68.7969 62.12C68.4235 62.12 68.1169 62.2533 67.8769 62.52C67.6369 62.76 67.5169 63.1067 67.5169 63.56C67.5169 64.2 67.8635 64.7333 68.5569 65.16C69.2769 65.56 70.4102 66.0533 71.9569 66.64C73.7435 67.3067 75.2102 67.9467 76.3569 68.56C77.5302 69.1733 78.5435 70.0267 79.3969 71.12C80.2502 72.2133 80.6769 73.5867 80.6769 75.24C80.6769 76.9733 80.2502 78.5333 79.3969 79.92C78.5435 81.28 77.3035 82.3467 75.6769 83.12C74.0502 83.8933 72.1169 84.28 69.8769 84.28Z" fill="#FFD12E"/>
</g>
<defs>
<filter id="filter0_d_16_46" x="16" y="13" width="83" height="98" filterUnits="userSpaceOnUse" color-interpolation-filters="sRGB">
<feFlood flood-opacity="0" result="BackgroundImageFix"/>
<feColorMatrix in="SourceAlpha" type="matrix" values="0 0 0 0 0 0 0 0 0 0 0 0 0 0 0 0 0 0 127 0" result="hardAlpha"/>
<feOffset dy="4"/>
<feGaussianBlur stdDeviation="2"/>
<feComposite in2="hardAlpha" operator="out"/>
<feColorMatrix type="matrix" values="0 0 0 0 0 0 0 0 0 0 0 0 0 0 0 0 0 0 0.25 0"/>
<feBlend mode="normal" in2="BackgroundImageFix" result="effect1_dropShadow_16_46"/>
<feBlend mode="normal" in="SourceGraphic" in2="effect1_dropShadow_16_46" result="shape"/>
</filter>
<filter id="filter1_d_16_46" x="62" y="11" width="35" height="35" filterUnits="userSpaceOnUse" color-interpolation-filters="sRGB">
<feFlood flood-opacity="0" result="BackgroundImageFix"/>
<feColorMatrix in="SourceAlpha" type="matrix" values="0 0 0 0 0 0 0 0 0 0 0 0 0 0 0 0 0 0 127 0" result="hardAlpha"/>
<feOffset dx="-2" dy="2"/>
<feGaussianBlur stdDeviation="2"/>
<feComposite in2="hardAlpha" operator="out"/>
<feColorMatrix type="matrix" values="0 0 0 0 0 0 0 0 0 0 0 0 0 0 0 0 0 0 0.25 0"/>
<feBlend mode="normal" in2="BackgroundImageFix" result="effect1_dropShadow_16_46"/>
<feBlend mode="normal" in="SourceGraphic" in2="effect1_dropShadow_16_46" result="shape"/>
</filter>
<filter id="filter2_d_16_46" x="29.6031" y="55.2" width="55.0737" height="37.08" filterUnits="userSpaceOnUse" color-interpolation-filters="sRGB">
<feFlood flood-opacity="0" result="BackgroundImageFix"/>
<feColorMatrix in="SourceAlpha" type="matrix" values="0 0 0 0 0 0 0 0 0 0 0 0 0 0 0 0 0 0 127 0" result="hardAlpha"/>
<feOffset dy="4"/>
<feGaussianBlur stdDeviation="2"/>
<feComposite in2="hardAlpha" operator="out"/>
<feColorMatrix type="matrix" values="0 0 0 0 0 0 0 0 0 0 0 0 0 0 0 0 0 0 0.25 0"/>
<feBlend mode="normal" in2="BackgroundImageFix" result="effect1_dropShadow_16_46"/>
<feBlend mode="normal" in="SourceGraphic" in2="effect1_dropShadow_16_46" result="shape"/>
</filter>
<linearGradient id="paint0_linear_16_46" x1="20" y1="103" x2="92" y2="13" gradientUnits="userSpaceOnUse">
<stop stop-color="#EDEDED"/>
<stop offset="1" stop-color="#F9F9F9"/>
</linearGradient>
</defs>
</svg>
