<svg width="116" height="116" viewBox="0 0 116 116" fill="none" xmlns="http://www.w3.org/2000/svg">
<g filter="url(#filter0_d_16_64)">
<path fill-rule="evenodd" clip-rule="evenodd" d="M28 13C23.5817 13 20 16.5817 20 21V95C20 99.4183 23.5817 103 28 103H87C91.4183 103 95 99.4183 95 95V40L68 13H28Z" fill="url(#paint0_linear_16_64)"/>
</g>
<g filter="url(#filter1_d_16_64)">
<path d="M95 40L68 13V37C68 38.6569 69.3431 40 71 40H95Z" fill="white"/>
</g>
<g filter="url(#filter2_d_16_64)">
<path d="M70.1094 59.75C70.5781 60.5312 70.5781 61.4688 70.1094 62.25C69.7188 63.0312 68.8594 63.5 68 63.5H53C52.0625 63.5 51.2031 63.0312 50.8125 62.25C50.3438 61.4688 50.3438 60.5312 50.8125 59.75L58.3125 47.25C58.7812 46.4688 59.5625 46 60.5 46C61.3594 46 62.1406 46.4688 62.6094 47.25L70.1094 59.75ZM60.5 70.375C60.5 68.6562 61.8281 67.25 63.625 67.25H74.875C76.5938 67.25 78 68.6562 78 70.375V81.625C78 83.4219 76.5938 84.75 74.875 84.75H63.625C61.8281 84.75 60.5 83.4219 60.5 81.625V70.375ZM38 76C38 70.5312 42.4531 66 48 66C53.4688 66 58 70.5312 58 76C58 81.5469 53.4688 86 48 86C42.4531 86 38 81.5469 38 76Z" fill="#FFD12E"/>
</g>
<defs>
<filter id="filter0_d_16_64" x="16" y="13" width="83" height="98" filterUnits="userSpaceOnUse" color-interpolation-filters="sRGB">
<feFlood flood-opacity="0" result="BackgroundImageFix"/>
<feColorMatrix in="SourceAlpha" type="matrix" values="0 0 0 0 0 0 0 0 0 0 0 0 0 0 0 0 0 0 127 0" result="hardAlpha"/>
<feOffset dy="4"/>
<feGaussianBlur stdDeviation="2"/>
<feComposite in2="hardAlpha" operator="out"/>
<feColorMatrix type="matrix" values="0 0 0 0 0 0 0 0 0 0 0 0 0 0 0 0 0 0 0.25 0"/>
<feBlend mode="normal" in2="BackgroundImageFix" result="effect1_dropShadow_16_64"/>
<feBlend mode="normal" in="SourceGraphic" in2="effect1_dropShadow_16_64" result="shape"/>
</filter>
<filter id="filter1_d_16_64" x="62" y="11" width="35" height="35" filterUnits="userSpaceOnUse" color-interpolation-filters="sRGB">
<feFlood flood-opacity="0" result="BackgroundImageFix"/>
<feColorMatrix in="SourceAlpha" type="matrix" values="0 0 0 0 0 0 0 0 0 0 0 0 0 0 0 0 0 0 127 0" result="hardAlpha"/>
<feOffset dx="-2" dy="2"/>
<feGaussianBlur stdDeviation="2"/>
<feComposite in2="hardAlpha" operator="out"/>
<feColorMatrix type="matrix" values="0 0 0 0 0 0 0 0 0 0 0 0 0 0 0 0 0 0 0.25 0"/>
<feBlend mode="normal" in2="BackgroundImageFix" result="effect1_dropShadow_16_64"/>
<feBlend mode="normal" in="SourceGraphic" in2="effect1_dropShadow_16_64" result="shape"/>
</filter>
<filter id="filter2_d_16_64" x="34" y="46" width="48" height="48" filterUnits="userSpaceOnUse" color-interpolation-filters="sRGB">
<feFlood flood-opacity="0" result="BackgroundImageFix"/>
<feColorMatrix in="SourceAlpha" type="matrix" values="0 0 0 0 0 0 0 0 0 0 0 0 0 0 0 0 0 0 127 0" result="hardAlpha"/>
<feOffset dy="4"/>
<feGaussianBlur stdDeviation="2"/>
<feComposite in2="hardAlpha" operator="out"/>
<feColorMatrix type="matrix" values="0 0 0 0 0 0 0 0 0 0 0 0 0 0 0 0 0 0 0.25 0"/>
<feBlend mode="normal" in2="BackgroundImageFix" result="effect1_dropShadow_16_64"/>
<feBlend mode="normal" in="SourceGraphic" in2="effect1_dropShadow_16_64" result="shape"/>
</filter>
<linearGradient id="paint0_linear_16_64" x1="20" y1="103" x2="92" y2="13" gradientUnits="userSpaceOnUse">
<stop stop-color="#EDEDED"/>
<stop offset="1" stop-color="#F9F9F9"/>
</linearGradient>
</defs>
</svg>
